%TF.GenerationSoftware,KiCad,Pcbnew,(6.0.5)*%
%TF.CreationDate,2022-11-16T22:17:36-08:00*%
%TF.ProjectId,ECE411,45434534-3131-42e6-9b69-6361645f7063,rev?*%
%TF.SameCoordinates,Original*%
%TF.FileFunction,Soldermask,Top*%
%TF.FilePolarity,Negative*%
%FSLAX46Y46*%
G04 Gerber Fmt 4.6, Leading zero omitted, Abs format (unit mm)*
G04 Created by KiCad (PCBNEW (6.0.5)) date 2022-11-16 22:17:36*
%MOMM*%
%LPD*%
G01*
G04 APERTURE LIST*
G04 Aperture macros list*
%AMRoundRect*
0 Rectangle with rounded corners*
0 $1 Rounding radius*
0 $2 $3 $4 $5 $6 $7 $8 $9 X,Y pos of 4 corners*
0 Add a 4 corners polygon primitive as box body*
4,1,4,$2,$3,$4,$5,$6,$7,$8,$9,$2,$3,0*
0 Add four circle primitives for the rounded corners*
1,1,$1+$1,$2,$3*
1,1,$1+$1,$4,$5*
1,1,$1+$1,$6,$7*
1,1,$1+$1,$8,$9*
0 Add four rect primitives between the rounded corners*
20,1,$1+$1,$2,$3,$4,$5,0*
20,1,$1+$1,$4,$5,$6,$7,0*
20,1,$1+$1,$6,$7,$8,$9,0*
20,1,$1+$1,$8,$9,$2,$3,0*%
G04 Aperture macros list end*
%ADD10RoundRect,0.050800X0.900000X-0.900000X0.900000X0.900000X-0.900000X0.900000X-0.900000X-0.900000X0*%
%ADD11C,1.901600*%
%ADD12RoundRect,0.700800X-0.650000X0.650000X-0.650000X-0.650000X0.650000X-0.650000X0.650000X0.650000X0*%
%ADD13C,2.701600*%
%ADD14RoundRect,0.300800X-0.312500X-0.625000X0.312500X-0.625000X0.312500X0.625000X-0.312500X0.625000X0*%
%ADD15C,3.101600*%
%ADD16RoundRect,0.050800X-0.900000X-1.300000X0.900000X-1.300000X0.900000X1.300000X-0.900000X1.300000X0*%
%ADD17O,1.901600X2.701600*%
%ADD18RoundRect,0.300800X0.312500X0.625000X-0.312500X0.625000X-0.312500X-0.625000X0.312500X-0.625000X0*%
%ADD19RoundRect,0.050800X0.800000X-0.800000X0.800000X0.800000X-0.800000X0.800000X-0.800000X-0.800000X0*%
%ADD20C,1.701600*%
%ADD21RoundRect,0.200800X-0.150000X0.587500X-0.150000X-0.587500X0.150000X-0.587500X0.150000X0.587500X0*%
%ADD22RoundRect,0.050800X-0.600000X-0.600000X0.600000X-0.600000X0.600000X0.600000X-0.600000X0.600000X0*%
%ADD23RoundRect,0.050800X-0.750000X-0.800000X0.750000X-0.800000X0.750000X0.800000X-0.750000X0.800000X0*%
G04 APERTURE END LIST*
D10*
%TO.C,D1*%
X130810000Y-78110000D03*
D11*
X130810000Y-75570000D03*
%TD*%
D12*
%TO.C,J2-ToMoistSense1*%
X123795480Y-84292020D03*
D13*
X123795480Y-89372020D03*
%TD*%
D12*
%TO.C,Batt1*%
X116175480Y-84292020D03*
D13*
X116175480Y-89372020D03*
%TD*%
D14*
%TO.C,R3*%
X168052980Y-90007020D03*
X170977980Y-90007020D03*
%TD*%
D15*
%TO.C,DS1*%
X185425480Y-95604520D03*
X110426380Y-95604520D03*
X110426380Y-126605220D03*
X185424960Y-126605220D03*
D16*
X115925480Y-95604520D03*
D17*
X118465480Y-95604520D03*
X121005480Y-95604520D03*
X123545480Y-95604520D03*
X126085480Y-95604520D03*
X128625480Y-95604520D03*
X131165480Y-95604520D03*
X133705480Y-95604520D03*
X136245480Y-95604520D03*
X138785480Y-95604520D03*
X141325480Y-95604520D03*
X143865480Y-95604520D03*
X146405480Y-95604520D03*
X148945480Y-95604520D03*
X151485480Y-95604520D03*
X154025480Y-95604520D03*
%TD*%
D18*
%TO.C,R4*%
X163992980Y-90007020D03*
X161067980Y-90007020D03*
%TD*%
D19*
%TO.C,A1*%
X181580480Y-64079520D03*
D20*
X179040480Y-64079520D03*
X176500480Y-64079520D03*
X173960480Y-64079520D03*
X171420480Y-64079520D03*
X168880480Y-64079520D03*
X166340480Y-64079520D03*
X163800480Y-64079520D03*
X161260480Y-64079520D03*
X158720480Y-64079520D03*
X156180480Y-64079520D03*
X153640480Y-64079520D03*
X151100480Y-64079520D03*
X148560480Y-64079520D03*
X146020480Y-64079520D03*
X143480480Y-64079520D03*
X143480480Y-84399520D03*
X146020480Y-84399520D03*
X148560480Y-84399520D03*
X151100480Y-84399520D03*
X153640480Y-84399520D03*
X156180480Y-84399520D03*
X158720480Y-84399520D03*
X161260480Y-84399520D03*
X163800480Y-84399520D03*
X166340480Y-84399520D03*
X168880480Y-84399520D03*
X171420480Y-84399520D03*
%TD*%
D14*
%TO.C,R2*%
X175037980Y-90007020D03*
X177962980Y-90007020D03*
%TD*%
D12*
%TO.C,J1-ToPump1*%
X132050480Y-84292020D03*
D13*
X132050480Y-89372020D03*
%TD*%
D21*
%TO.C,Q1*%
X185070480Y-88434520D03*
X183170480Y-88434520D03*
X184120480Y-90309520D03*
%TD*%
D22*
%TO.C,R1*%
X153745480Y-89007020D03*
D23*
X156995480Y-90007020D03*
D22*
X153745480Y-91007020D03*
%TD*%
M02*
