M48
; DRILL file {KiCad (6.0.5)} date Wed Nov 16 22:17:55 2022
; FORMAT={-:-/ absolute / inch / decimal}
; #@! TF.CreationDate,2022-11-16T22:17:55-08:00
; #@! TF.GenerationSoftware,Kicad,Pcbnew,(6.0.5)
; #@! TF.FileFunction,Plated,1,2,PTH
FMAT,2
INCH
; #@! TA.AperFunction,Plated,PTH,ViaDrill
T1C0.0157
; #@! TA.AperFunction,Plated,PTH,ComponentDrill
T2C0.0315
; #@! TA.AperFunction,Plated,PTH,ComponentDrill
T3C0.0354
; #@! TA.AperFunction,Plated,PTH,ComponentDrill
T4C0.0472
; #@! TA.AperFunction,Plated,PTH,ComponentDrill
T5C0.0512
; #@! TA.AperFunction,Plated,PTH,ComponentDrill
T6C0.0984
%
G90
G05
T1
X4.6988Y-2.7936
X4.6988Y-4.5436
X4.725Y-3.5436
X5.4488Y-2.7936
X5.4488Y-4.5436
X5.45Y-3.6
X5.9488Y-3.0436
X5.975Y-3.6
X6.125Y-3.15
X6.1988Y-2.7936
X6.1988Y-4.5436
X6.2523Y-3.4546
X6.9488Y-2.7936
X6.9488Y-3.2936
X6.9488Y-3.7936
X6.9488Y-4.5436
T2
X5.6488Y-2.5228
X5.6488Y-3.3228
X5.7488Y-2.5228
X5.7488Y-3.3228
X5.8488Y-2.5228
X5.8488Y-3.3228
X5.9488Y-2.5228
X5.9488Y-3.3228
X6.0488Y-2.5228
X6.0488Y-3.3228
X6.1488Y-2.5228
X6.1488Y-3.3228
X6.2488Y-2.5228
X6.2488Y-3.3228
X6.3488Y-2.5228
X6.3488Y-3.3228
X6.4488Y-2.5228
X6.4488Y-3.3228
X6.5488Y-2.5228
X6.5488Y-3.3228
X6.6488Y-2.5228
X6.6488Y-3.3228
X6.7488Y-2.5228
X6.7488Y-3.3228
X6.8488Y-2.5228
X6.9488Y-2.5228
X7.0488Y-2.5228
X7.1488Y-2.5228
T3
X5.15Y-2.9752
X5.15Y-3.0752
T4
X4.564Y-3.764
X4.664Y-3.764
X4.764Y-3.764
X4.864Y-3.764
X4.964Y-3.764
X5.064Y-3.764
X5.164Y-3.764
X5.264Y-3.764
X5.364Y-3.764
X5.464Y-3.764
X5.564Y-3.764
X5.664Y-3.764
X5.764Y-3.764
X5.864Y-3.764
X5.964Y-3.764
X6.064Y-3.764
T5
X4.5738Y-3.3186
X4.5738Y-3.5186
X4.8738Y-3.3186
X4.8738Y-3.5186
X5.1988Y-3.3186
X5.1988Y-3.5186
T6
X4.3475Y-3.764
X4.3475Y-4.9845
X7.3002Y-4.9845
X7.3002Y-3.764
T0
M30
