%TF.GenerationSoftware,KiCad,Pcbnew,(6.0.5)*%
%TF.CreationDate,2022-11-16T22:17:36-08:00*%
%TF.ProjectId,ECE411,45434534-3131-42e6-9b69-6361645f7063,rev?*%
%TF.SameCoordinates,Original*%
%TF.FileFunction,Legend,Top*%
%TF.FilePolarity,Positive*%
%FSLAX46Y46*%
G04 Gerber Fmt 4.6, Leading zero omitted, Abs format (unit mm)*
G04 Created by KiCad (PCBNEW (6.0.5)) date 2022-11-16 22:17:36*
%MOMM*%
%LPD*%
G01*
G04 APERTURE LIST*
G04 Aperture macros list*
%AMRoundRect*
0 Rectangle with rounded corners*
0 $1 Rounding radius*
0 $2 $3 $4 $5 $6 $7 $8 $9 X,Y pos of 4 corners*
0 Add a 4 corners polygon primitive as box body*
4,1,4,$2,$3,$4,$5,$6,$7,$8,$9,$2,$3,0*
0 Add four circle primitives for the rounded corners*
1,1,$1+$1,$2,$3*
1,1,$1+$1,$4,$5*
1,1,$1+$1,$6,$7*
1,1,$1+$1,$8,$9*
0 Add four rect primitives between the rounded corners*
20,1,$1+$1,$2,$3,$4,$5,0*
20,1,$1+$1,$4,$5,$6,$7,0*
20,1,$1+$1,$6,$7,$8,$9,0*
20,1,$1+$1,$8,$9,$2,$3,0*%
G04 Aperture macros list end*
%ADD10C,0.150000*%
%ADD11C,0.120000*%
%ADD12RoundRect,0.050800X0.900000X-0.900000X0.900000X0.900000X-0.900000X0.900000X-0.900000X-0.900000X0*%
%ADD13C,1.901600*%
%ADD14RoundRect,0.700800X-0.650000X0.650000X-0.650000X-0.650000X0.650000X-0.650000X0.650000X0.650000X0*%
%ADD15C,2.701600*%
%ADD16RoundRect,0.300800X-0.312500X-0.625000X0.312500X-0.625000X0.312500X0.625000X-0.312500X0.625000X0*%
%ADD17C,3.101600*%
%ADD18RoundRect,0.050800X-0.900000X-1.300000X0.900000X-1.300000X0.900000X1.300000X-0.900000X1.300000X0*%
%ADD19O,1.901600X2.701600*%
%ADD20RoundRect,0.300800X0.312500X0.625000X-0.312500X0.625000X-0.312500X-0.625000X0.312500X-0.625000X0*%
%ADD21RoundRect,0.050800X0.800000X-0.800000X0.800000X0.800000X-0.800000X0.800000X-0.800000X-0.800000X0*%
%ADD22C,1.701600*%
%ADD23RoundRect,0.200800X-0.150000X0.587500X-0.150000X-0.587500X0.150000X-0.587500X0.150000X0.587500X0*%
%ADD24RoundRect,0.050800X-0.600000X-0.600000X0.600000X-0.600000X0.600000X0.600000X-0.600000X0.600000X0*%
%ADD25RoundRect,0.050800X-0.750000X-0.800000X0.750000X-0.800000X0.750000X0.800000X-0.750000X0.800000X0*%
G04 APERTURE END LIST*
D10*
X116054523Y-63882380D02*
X116625952Y-63882380D01*
X116340238Y-64882380D02*
X116340238Y-63882380D01*
X117340238Y-64834761D02*
X117245000Y-64882380D01*
X117054523Y-64882380D01*
X116959285Y-64834761D01*
X116911666Y-64739523D01*
X116911666Y-64358571D01*
X116959285Y-64263333D01*
X117054523Y-64215714D01*
X117245000Y-64215714D01*
X117340238Y-64263333D01*
X117387857Y-64358571D01*
X117387857Y-64453809D01*
X116911666Y-64549047D01*
X118245000Y-64882380D02*
X118245000Y-64358571D01*
X118197380Y-64263333D01*
X118102142Y-64215714D01*
X117911666Y-64215714D01*
X117816428Y-64263333D01*
X118245000Y-64834761D02*
X118149761Y-64882380D01*
X117911666Y-64882380D01*
X117816428Y-64834761D01*
X117768809Y-64739523D01*
X117768809Y-64644285D01*
X117816428Y-64549047D01*
X117911666Y-64501428D01*
X118149761Y-64501428D01*
X118245000Y-64453809D01*
X118721190Y-64882380D02*
X118721190Y-64215714D01*
X118721190Y-64310952D02*
X118768809Y-64263333D01*
X118864047Y-64215714D01*
X119006904Y-64215714D01*
X119102142Y-64263333D01*
X119149761Y-64358571D01*
X119149761Y-64882380D01*
X119149761Y-64358571D02*
X119197380Y-64263333D01*
X119292619Y-64215714D01*
X119435476Y-64215714D01*
X119530714Y-64263333D01*
X119578333Y-64358571D01*
X119578333Y-64882380D01*
X120721190Y-63882380D02*
X121387857Y-63882380D01*
X120959285Y-64882380D01*
X111649761Y-65492380D02*
X112221190Y-65492380D01*
X111935476Y-66492380D02*
X111935476Y-65492380D01*
X112554523Y-66492380D02*
X112554523Y-65492380D01*
X112983095Y-66492380D02*
X112983095Y-65968571D01*
X112935476Y-65873333D01*
X112840238Y-65825714D01*
X112697380Y-65825714D01*
X112602142Y-65873333D01*
X112554523Y-65920952D01*
X113459285Y-66492380D02*
X113459285Y-65825714D01*
X113459285Y-65492380D02*
X113411666Y-65540000D01*
X113459285Y-65587619D01*
X113506904Y-65540000D01*
X113459285Y-65492380D01*
X113459285Y-65587619D01*
X113935476Y-66492380D02*
X113935476Y-65825714D01*
X113935476Y-66016190D02*
X113983095Y-65920952D01*
X114030714Y-65873333D01*
X114125952Y-65825714D01*
X114221190Y-65825714D01*
X114506904Y-66444761D02*
X114602142Y-66492380D01*
X114792619Y-66492380D01*
X114887857Y-66444761D01*
X114935476Y-66349523D01*
X114935476Y-66301904D01*
X114887857Y-66206666D01*
X114792619Y-66159047D01*
X114649761Y-66159047D01*
X114554523Y-66111428D01*
X114506904Y-66016190D01*
X114506904Y-65968571D01*
X114554523Y-65873333D01*
X114649761Y-65825714D01*
X114792619Y-65825714D01*
X114887857Y-65873333D01*
X115221190Y-65825714D02*
X115602142Y-65825714D01*
X115364047Y-65492380D02*
X115364047Y-66349523D01*
X115411666Y-66444761D01*
X115506904Y-66492380D01*
X115602142Y-66492380D01*
X115840238Y-65825714D02*
X116078333Y-66492380D01*
X116316428Y-65825714D02*
X116078333Y-66492380D01*
X115983095Y-66730476D01*
X115935476Y-66778095D01*
X115840238Y-66825714D01*
X117459285Y-66492380D02*
X117459285Y-65492380D01*
X117840238Y-65492380D01*
X117935476Y-65540000D01*
X117983095Y-65587619D01*
X118030714Y-65682857D01*
X118030714Y-65825714D01*
X117983095Y-65920952D01*
X117935476Y-65968571D01*
X117840238Y-66016190D01*
X117459285Y-66016190D01*
X118602142Y-66492380D02*
X118506904Y-66444761D01*
X118459285Y-66349523D01*
X118459285Y-65492380D01*
X119411666Y-66492380D02*
X119411666Y-65968571D01*
X119364047Y-65873333D01*
X119268809Y-65825714D01*
X119078333Y-65825714D01*
X118983095Y-65873333D01*
X119411666Y-66444761D02*
X119316428Y-66492380D01*
X119078333Y-66492380D01*
X118983095Y-66444761D01*
X118935476Y-66349523D01*
X118935476Y-66254285D01*
X118983095Y-66159047D01*
X119078333Y-66111428D01*
X119316428Y-66111428D01*
X119411666Y-66063809D01*
X119887857Y-65825714D02*
X119887857Y-66492380D01*
X119887857Y-65920952D02*
X119935476Y-65873333D01*
X120030714Y-65825714D01*
X120173571Y-65825714D01*
X120268809Y-65873333D01*
X120316428Y-65968571D01*
X120316428Y-66492380D01*
X120649761Y-65825714D02*
X121030714Y-65825714D01*
X120792619Y-65492380D02*
X120792619Y-66349523D01*
X120840238Y-66444761D01*
X120935476Y-66492380D01*
X121030714Y-66492380D01*
X121316428Y-66444761D02*
X121411666Y-66492380D01*
X121602142Y-66492380D01*
X121697380Y-66444761D01*
X121745000Y-66349523D01*
X121745000Y-66301904D01*
X121697380Y-66206666D01*
X121602142Y-66159047D01*
X121459285Y-66159047D01*
X121364047Y-66111428D01*
X121316428Y-66016190D01*
X121316428Y-65968571D01*
X121364047Y-65873333D01*
X121459285Y-65825714D01*
X121602142Y-65825714D01*
X121697380Y-65873333D01*
X122792619Y-65492380D02*
X123125952Y-66492380D01*
X123459285Y-65492380D01*
X124316428Y-66492380D02*
X123745000Y-66492380D01*
X124030714Y-66492380D02*
X124030714Y-65492380D01*
X123935476Y-65635238D01*
X123840238Y-65730476D01*
X123745000Y-65778095D01*
X124745000Y-66397142D02*
X124792619Y-66444761D01*
X124745000Y-66492380D01*
X124697380Y-66444761D01*
X124745000Y-66397142D01*
X124745000Y-66492380D01*
X125745000Y-66492380D02*
X125173571Y-66492380D01*
X125459285Y-66492380D02*
X125459285Y-65492380D01*
X125364047Y-65635238D01*
X125268809Y-65730476D01*
X125173571Y-65778095D01*
X114649761Y-68102380D02*
X114078333Y-68102380D01*
X114364047Y-68102380D02*
X114364047Y-67102380D01*
X114268809Y-67245238D01*
X114173571Y-67340476D01*
X114078333Y-67388095D01*
X115602142Y-68102380D02*
X115030714Y-68102380D01*
X115316428Y-68102380D02*
X115316428Y-67102380D01*
X115221190Y-67245238D01*
X115125952Y-67340476D01*
X115030714Y-67388095D01*
X116745000Y-67054761D02*
X115887857Y-68340476D01*
X117602142Y-68102380D02*
X117030714Y-68102380D01*
X117316428Y-68102380D02*
X117316428Y-67102380D01*
X117221190Y-67245238D01*
X117125952Y-67340476D01*
X117030714Y-67388095D01*
X117935476Y-67102380D02*
X118602142Y-67102380D01*
X118173571Y-68102380D01*
X119697380Y-67054761D02*
X118840238Y-68340476D01*
X119983095Y-67197619D02*
X120030714Y-67150000D01*
X120125952Y-67102380D01*
X120364047Y-67102380D01*
X120459285Y-67150000D01*
X120506904Y-67197619D01*
X120554523Y-67292857D01*
X120554523Y-67388095D01*
X120506904Y-67530952D01*
X119935476Y-68102380D01*
X120554523Y-68102380D01*
X121173571Y-67102380D02*
X121268809Y-67102380D01*
X121364047Y-67150000D01*
X121411666Y-67197619D01*
X121459285Y-67292857D01*
X121506904Y-67483333D01*
X121506904Y-67721428D01*
X121459285Y-67911904D01*
X121411666Y-68007142D01*
X121364047Y-68054761D01*
X121268809Y-68102380D01*
X121173571Y-68102380D01*
X121078333Y-68054761D01*
X121030714Y-68007142D01*
X120983095Y-67911904D01*
X120935476Y-67721428D01*
X120935476Y-67483333D01*
X120983095Y-67292857D01*
X121030714Y-67197619D01*
X121078333Y-67150000D01*
X121173571Y-67102380D01*
X121887857Y-67197619D02*
X121935476Y-67150000D01*
X122030714Y-67102380D01*
X122268809Y-67102380D01*
X122364047Y-67150000D01*
X122411666Y-67197619D01*
X122459285Y-67292857D01*
X122459285Y-67388095D01*
X122411666Y-67530952D01*
X121840238Y-68102380D01*
X122459285Y-68102380D01*
X122840238Y-67197619D02*
X122887857Y-67150000D01*
X122983095Y-67102380D01*
X123221190Y-67102380D01*
X123316428Y-67150000D01*
X123364047Y-67197619D01*
X123411666Y-67292857D01*
X123411666Y-67388095D01*
X123364047Y-67530952D01*
X122792619Y-68102380D01*
X123411666Y-68102380D01*
%TO.C,D1*%
X127302380Y-77578095D02*
X126302380Y-77578095D01*
X126302380Y-77340000D01*
X126350000Y-77197142D01*
X126445238Y-77101904D01*
X126540476Y-77054285D01*
X126730952Y-77006666D01*
X126873809Y-77006666D01*
X127064285Y-77054285D01*
X127159523Y-77101904D01*
X127254761Y-77197142D01*
X127302380Y-77340000D01*
X127302380Y-77578095D01*
X127302380Y-76054285D02*
X127302380Y-76625714D01*
X127302380Y-76340000D02*
X126302380Y-76340000D01*
X126445238Y-76435238D01*
X126540476Y-76530476D01*
X126588095Y-76625714D01*
%TO.C,J2-ToMoistSense1*%
X125787860Y-91966781D02*
X126502146Y-91966781D01*
X126645003Y-92014400D01*
X126740241Y-92109639D01*
X126787860Y-92252496D01*
X126787860Y-92347734D01*
X125883099Y-91538210D02*
X125835480Y-91490591D01*
X125787860Y-91395353D01*
X125787860Y-91157258D01*
X125835480Y-91062020D01*
X125883099Y-91014400D01*
X125978337Y-90966781D01*
X126073575Y-90966781D01*
X126216432Y-91014400D01*
X126787860Y-91585829D01*
X126787860Y-90966781D01*
X126406908Y-90538210D02*
X126406908Y-89776305D01*
X125787860Y-89442972D02*
X125787860Y-88871543D01*
X126787860Y-89157258D02*
X125787860Y-89157258D01*
X126787860Y-88395353D02*
X126740241Y-88490591D01*
X126692622Y-88538210D01*
X126597384Y-88585829D01*
X126311670Y-88585829D01*
X126216432Y-88538210D01*
X126168813Y-88490591D01*
X126121194Y-88395353D01*
X126121194Y-88252496D01*
X126168813Y-88157258D01*
X126216432Y-88109639D01*
X126311670Y-88062020D01*
X126597384Y-88062020D01*
X126692622Y-88109639D01*
X126740241Y-88157258D01*
X126787860Y-88252496D01*
X126787860Y-88395353D01*
X126787860Y-87633448D02*
X125787860Y-87633448D01*
X126502146Y-87300115D01*
X125787860Y-86966781D01*
X126787860Y-86966781D01*
X126787860Y-86347734D02*
X126740241Y-86442972D01*
X126692622Y-86490591D01*
X126597384Y-86538210D01*
X126311670Y-86538210D01*
X126216432Y-86490591D01*
X126168813Y-86442972D01*
X126121194Y-86347734D01*
X126121194Y-86204877D01*
X126168813Y-86109639D01*
X126216432Y-86062020D01*
X126311670Y-86014400D01*
X126597384Y-86014400D01*
X126692622Y-86062020D01*
X126740241Y-86109639D01*
X126787860Y-86204877D01*
X126787860Y-86347734D01*
X126787860Y-85585829D02*
X126121194Y-85585829D01*
X125787860Y-85585829D02*
X125835480Y-85633448D01*
X125883099Y-85585829D01*
X125835480Y-85538210D01*
X125787860Y-85585829D01*
X125883099Y-85585829D01*
X126740241Y-85157258D02*
X126787860Y-85062020D01*
X126787860Y-84871543D01*
X126740241Y-84776305D01*
X126645003Y-84728686D01*
X126597384Y-84728686D01*
X126502146Y-84776305D01*
X126454527Y-84871543D01*
X126454527Y-85014400D01*
X126406908Y-85109639D01*
X126311670Y-85157258D01*
X126264051Y-85157258D01*
X126168813Y-85109639D01*
X126121194Y-85014400D01*
X126121194Y-84871543D01*
X126168813Y-84776305D01*
X126121194Y-84442972D02*
X126121194Y-84062020D01*
X125787860Y-84300115D02*
X126645003Y-84300115D01*
X126740241Y-84252496D01*
X126787860Y-84157258D01*
X126787860Y-84062020D01*
X126740241Y-83776305D02*
X126787860Y-83633448D01*
X126787860Y-83395353D01*
X126740241Y-83300115D01*
X126692622Y-83252496D01*
X126597384Y-83204877D01*
X126502146Y-83204877D01*
X126406908Y-83252496D01*
X126359289Y-83300115D01*
X126311670Y-83395353D01*
X126264051Y-83585829D01*
X126216432Y-83681067D01*
X126168813Y-83728686D01*
X126073575Y-83776305D01*
X125978337Y-83776305D01*
X125883099Y-83728686D01*
X125835480Y-83681067D01*
X125787860Y-83585829D01*
X125787860Y-83347734D01*
X125835480Y-83204877D01*
X126740241Y-82395353D02*
X126787860Y-82490591D01*
X126787860Y-82681067D01*
X126740241Y-82776305D01*
X126645003Y-82823924D01*
X126264051Y-82823924D01*
X126168813Y-82776305D01*
X126121194Y-82681067D01*
X126121194Y-82490591D01*
X126168813Y-82395353D01*
X126264051Y-82347734D01*
X126359289Y-82347734D01*
X126454527Y-82823924D01*
X126121194Y-81919162D02*
X126787860Y-81919162D01*
X126216432Y-81919162D02*
X126168813Y-81871543D01*
X126121194Y-81776305D01*
X126121194Y-81633448D01*
X126168813Y-81538210D01*
X126264051Y-81490591D01*
X126787860Y-81490591D01*
X126740241Y-81062020D02*
X126787860Y-80966781D01*
X126787860Y-80776305D01*
X126740241Y-80681067D01*
X126645003Y-80633448D01*
X126597384Y-80633448D01*
X126502146Y-80681067D01*
X126454527Y-80776305D01*
X126454527Y-80919162D01*
X126406908Y-81014400D01*
X126311670Y-81062020D01*
X126264051Y-81062020D01*
X126168813Y-81014400D01*
X126121194Y-80919162D01*
X126121194Y-80776305D01*
X126168813Y-80681067D01*
X126740241Y-79823924D02*
X126787860Y-79919162D01*
X126787860Y-80109639D01*
X126740241Y-80204877D01*
X126645003Y-80252496D01*
X126264051Y-80252496D01*
X126168813Y-80204877D01*
X126121194Y-80109639D01*
X126121194Y-79919162D01*
X126168813Y-79823924D01*
X126264051Y-79776305D01*
X126359289Y-79776305D01*
X126454527Y-80252496D01*
X126787860Y-78823924D02*
X126787860Y-79395353D01*
X126787860Y-79109639D02*
X125787860Y-79109639D01*
X125930718Y-79204877D01*
X126025956Y-79300115D01*
X126073575Y-79395353D01*
%TO.C,Batt1*%
X118604051Y-88260591D02*
X118651670Y-88117734D01*
X118699289Y-88070115D01*
X118794527Y-88022496D01*
X118937384Y-88022496D01*
X119032622Y-88070115D01*
X119080241Y-88117734D01*
X119127860Y-88212972D01*
X119127860Y-88593924D01*
X118127860Y-88593924D01*
X118127860Y-88260591D01*
X118175480Y-88165353D01*
X118223099Y-88117734D01*
X118318337Y-88070115D01*
X118413575Y-88070115D01*
X118508813Y-88117734D01*
X118556432Y-88165353D01*
X118604051Y-88260591D01*
X118604051Y-88593924D01*
X119127860Y-87165353D02*
X118604051Y-87165353D01*
X118508813Y-87212972D01*
X118461194Y-87308210D01*
X118461194Y-87498686D01*
X118508813Y-87593924D01*
X119080241Y-87165353D02*
X119127860Y-87260591D01*
X119127860Y-87498686D01*
X119080241Y-87593924D01*
X118985003Y-87641543D01*
X118889765Y-87641543D01*
X118794527Y-87593924D01*
X118746908Y-87498686D01*
X118746908Y-87260591D01*
X118699289Y-87165353D01*
X118461194Y-86832020D02*
X118461194Y-86451067D01*
X118127860Y-86689162D02*
X118985003Y-86689162D01*
X119080241Y-86641543D01*
X119127860Y-86546305D01*
X119127860Y-86451067D01*
X118461194Y-86260591D02*
X118461194Y-85879639D01*
X118127860Y-86117734D02*
X118985003Y-86117734D01*
X119080241Y-86070115D01*
X119127860Y-85974877D01*
X119127860Y-85879639D01*
X119127860Y-85022496D02*
X119127860Y-85593924D01*
X119127860Y-85308210D02*
X118127860Y-85308210D01*
X118270718Y-85403448D01*
X118365956Y-85498686D01*
X118413575Y-85593924D01*
%TO.C,R3*%
X169348813Y-88554400D02*
X169015480Y-88078210D01*
X168777384Y-88554400D02*
X168777384Y-87554400D01*
X169158337Y-87554400D01*
X169253575Y-87602020D01*
X169301194Y-87649639D01*
X169348813Y-87744877D01*
X169348813Y-87887734D01*
X169301194Y-87982972D01*
X169253575Y-88030591D01*
X169158337Y-88078210D01*
X168777384Y-88078210D01*
X169682146Y-87554400D02*
X170301194Y-87554400D01*
X169967860Y-87935353D01*
X170110718Y-87935353D01*
X170205956Y-87982972D01*
X170253575Y-88030591D01*
X170301194Y-88125829D01*
X170301194Y-88363924D01*
X170253575Y-88459162D01*
X170205956Y-88506781D01*
X170110718Y-88554400D01*
X169825003Y-88554400D01*
X169729765Y-88506781D01*
X169682146Y-88459162D01*
%TO.C,DS1*%
X108891194Y-92246900D02*
X108891194Y-91246900D01*
X109129289Y-91246900D01*
X109272146Y-91294520D01*
X109367384Y-91389758D01*
X109415003Y-91484996D01*
X109462622Y-91675472D01*
X109462622Y-91818329D01*
X109415003Y-92008805D01*
X109367384Y-92104043D01*
X109272146Y-92199281D01*
X109129289Y-92246900D01*
X108891194Y-92246900D01*
X109843575Y-92199281D02*
X109986432Y-92246900D01*
X110224527Y-92246900D01*
X110319765Y-92199281D01*
X110367384Y-92151662D01*
X110415003Y-92056424D01*
X110415003Y-91961186D01*
X110367384Y-91865948D01*
X110319765Y-91818329D01*
X110224527Y-91770710D01*
X110034051Y-91723091D01*
X109938813Y-91675472D01*
X109891194Y-91627853D01*
X109843575Y-91532615D01*
X109843575Y-91437377D01*
X109891194Y-91342139D01*
X109938813Y-91294520D01*
X110034051Y-91246900D01*
X110272146Y-91246900D01*
X110415003Y-91294520D01*
X111367384Y-92246900D02*
X110795956Y-92246900D01*
X111081670Y-92246900D02*
X111081670Y-91246900D01*
X110986432Y-91389758D01*
X110891194Y-91484996D01*
X110795956Y-91532615D01*
%TO.C,R4*%
X162363813Y-88554400D02*
X162030480Y-88078210D01*
X161792384Y-88554400D02*
X161792384Y-87554400D01*
X162173337Y-87554400D01*
X162268575Y-87602020D01*
X162316194Y-87649639D01*
X162363813Y-87744877D01*
X162363813Y-87887734D01*
X162316194Y-87982972D01*
X162268575Y-88030591D01*
X162173337Y-88078210D01*
X161792384Y-88078210D01*
X163220956Y-87887734D02*
X163220956Y-88554400D01*
X162982860Y-87506781D02*
X162744765Y-88221067D01*
X163363813Y-88221067D01*
%TO.C,A1*%
X134757146Y-74211305D02*
X134757146Y-73735115D01*
X135042860Y-74306543D02*
X134042860Y-73973210D01*
X135042860Y-73639877D01*
X135042860Y-72782734D02*
X135042860Y-73354162D01*
X135042860Y-73068448D02*
X134042860Y-73068448D01*
X134185718Y-73163686D01*
X134280956Y-73258924D01*
X134328575Y-73354162D01*
%TO.C,R2*%
X176333813Y-88554400D02*
X176000480Y-88078210D01*
X175762384Y-88554400D02*
X175762384Y-87554400D01*
X176143337Y-87554400D01*
X176238575Y-87602020D01*
X176286194Y-87649639D01*
X176333813Y-87744877D01*
X176333813Y-87887734D01*
X176286194Y-87982972D01*
X176238575Y-88030591D01*
X176143337Y-88078210D01*
X175762384Y-88078210D01*
X176714765Y-87649639D02*
X176762384Y-87602020D01*
X176857622Y-87554400D01*
X177095718Y-87554400D01*
X177190956Y-87602020D01*
X177238575Y-87649639D01*
X177286194Y-87744877D01*
X177286194Y-87840115D01*
X177238575Y-87982972D01*
X176667146Y-88554400D01*
X177286194Y-88554400D01*
%TO.C,J1-ToPump1*%
X134002860Y-91165353D02*
X134717146Y-91165353D01*
X134860003Y-91212972D01*
X134955241Y-91308210D01*
X135002860Y-91451067D01*
X135002860Y-91546305D01*
X135002860Y-90165353D02*
X135002860Y-90736781D01*
X135002860Y-90451067D02*
X134002860Y-90451067D01*
X134145718Y-90546305D01*
X134240956Y-90641543D01*
X134288575Y-90736781D01*
X134621908Y-89736781D02*
X134621908Y-88974877D01*
X134002860Y-88641543D02*
X134002860Y-88070115D01*
X135002860Y-88355829D02*
X134002860Y-88355829D01*
X135002860Y-87593924D02*
X134955241Y-87689162D01*
X134907622Y-87736781D01*
X134812384Y-87784400D01*
X134526670Y-87784400D01*
X134431432Y-87736781D01*
X134383813Y-87689162D01*
X134336194Y-87593924D01*
X134336194Y-87451067D01*
X134383813Y-87355829D01*
X134431432Y-87308210D01*
X134526670Y-87260591D01*
X134812384Y-87260591D01*
X134907622Y-87308210D01*
X134955241Y-87355829D01*
X135002860Y-87451067D01*
X135002860Y-87593924D01*
X135002860Y-86832020D02*
X134002860Y-86832020D01*
X134002860Y-86451067D01*
X134050480Y-86355829D01*
X134098099Y-86308210D01*
X134193337Y-86260591D01*
X134336194Y-86260591D01*
X134431432Y-86308210D01*
X134479051Y-86355829D01*
X134526670Y-86451067D01*
X134526670Y-86832020D01*
X134336194Y-85403448D02*
X135002860Y-85403448D01*
X134336194Y-85832020D02*
X134860003Y-85832020D01*
X134955241Y-85784400D01*
X135002860Y-85689162D01*
X135002860Y-85546305D01*
X134955241Y-85451067D01*
X134907622Y-85403448D01*
X135002860Y-84927258D02*
X134336194Y-84927258D01*
X134431432Y-84927258D02*
X134383813Y-84879639D01*
X134336194Y-84784400D01*
X134336194Y-84641543D01*
X134383813Y-84546305D01*
X134479051Y-84498686D01*
X135002860Y-84498686D01*
X134479051Y-84498686D02*
X134383813Y-84451067D01*
X134336194Y-84355829D01*
X134336194Y-84212972D01*
X134383813Y-84117734D01*
X134479051Y-84070115D01*
X135002860Y-84070115D01*
X134336194Y-83593924D02*
X135336194Y-83593924D01*
X134383813Y-83593924D02*
X134336194Y-83498686D01*
X134336194Y-83308210D01*
X134383813Y-83212972D01*
X134431432Y-83165353D01*
X134526670Y-83117734D01*
X134812384Y-83117734D01*
X134907622Y-83165353D01*
X134955241Y-83212972D01*
X135002860Y-83308210D01*
X135002860Y-83498686D01*
X134955241Y-83593924D01*
X135002860Y-82165353D02*
X135002860Y-82736781D01*
X135002860Y-82451067D02*
X134002860Y-82451067D01*
X134145718Y-82546305D01*
X134240956Y-82641543D01*
X134288575Y-82736781D01*
%TO.C,Q1*%
X187200241Y-89919639D02*
X187105003Y-89872020D01*
X187009765Y-89776781D01*
X186866908Y-89633924D01*
X186771670Y-89586305D01*
X186676432Y-89586305D01*
X186724051Y-89824400D02*
X186628813Y-89776781D01*
X186533575Y-89681543D01*
X186485956Y-89491067D01*
X186485956Y-89157734D01*
X186533575Y-88967258D01*
X186628813Y-88872020D01*
X186724051Y-88824400D01*
X186914527Y-88824400D01*
X187009765Y-88872020D01*
X187105003Y-88967258D01*
X187152622Y-89157734D01*
X187152622Y-89491067D01*
X187105003Y-89681543D01*
X187009765Y-89776781D01*
X186914527Y-89824400D01*
X186724051Y-89824400D01*
X188105003Y-89824400D02*
X187533575Y-89824400D01*
X187819289Y-89824400D02*
X187819289Y-88824400D01*
X187724051Y-88967258D01*
X187628813Y-89062496D01*
X187533575Y-89110115D01*
%TO.C,R1*%
X155378813Y-87959400D02*
X155045480Y-87483210D01*
X154807384Y-87959400D02*
X154807384Y-86959400D01*
X155188337Y-86959400D01*
X155283575Y-87007020D01*
X155331194Y-87054639D01*
X155378813Y-87149877D01*
X155378813Y-87292734D01*
X155331194Y-87387972D01*
X155283575Y-87435591D01*
X155188337Y-87483210D01*
X154807384Y-87483210D01*
X156331194Y-87959400D02*
X155759765Y-87959400D01*
X156045480Y-87959400D02*
X156045480Y-86959400D01*
X155950241Y-87102258D01*
X155855003Y-87197496D01*
X155759765Y-87245115D01*
D11*
%TO.C,D1*%
X129265000Y-79400000D02*
X132355000Y-79400000D01*
X130810462Y-73850000D02*
G75*
G03*
X129265170Y-79400000I-462J-2990000D01*
G01*
X132354830Y-79400000D02*
G75*
G03*
X130809538Y-73850000I-1544830J2560000D01*
G01*
X133310000Y-76840000D02*
G75*
G03*
X133310000Y-76840000I-2500000J0D01*
G01*
%TO.C,J2-ToMoistSense1*%
X125295480Y-82792020D02*
X122295480Y-82792020D01*
X122295480Y-90892020D02*
X125295480Y-90892020D01*
X125295480Y-82792020D02*
X125295480Y-90892020D01*
X122295480Y-90892020D02*
X122295480Y-82792020D01*
%TO.C,Batt1*%
X114675480Y-90892020D02*
X114675480Y-82792020D01*
X117675480Y-82792020D02*
X114675480Y-82792020D01*
X117675480Y-82792020D02*
X117675480Y-90892020D01*
X114675480Y-90892020D02*
X117675480Y-90892020D01*
%TO.C,R3*%
X168788416Y-90917020D02*
X170242544Y-90917020D01*
X168788416Y-89097020D02*
X170242544Y-89097020D01*
%TO.C,DS1*%
X110925480Y-98604520D02*
X183925480Y-98604520D01*
X115625760Y-118103840D02*
X115625760Y-104104520D01*
X114425480Y-92604520D02*
X117425480Y-92604520D01*
X107795480Y-92964520D02*
X108585480Y-92964520D01*
X107785480Y-92964520D02*
X107785480Y-129244520D01*
X116125480Y-103604520D02*
X179625480Y-103604520D01*
X188065480Y-92964520D02*
X108585480Y-92964520D01*
X107785480Y-129244520D02*
X188065480Y-129244520D01*
X188065480Y-129244520D02*
X188065480Y-92964520D01*
X180125480Y-104104520D02*
X180125480Y-118104520D01*
X183925480Y-123604520D02*
X110925480Y-123604520D01*
X110925480Y-123604520D02*
X110925480Y-98604520D01*
X179626140Y-118604520D02*
X116125480Y-118604520D01*
X183925480Y-98604520D02*
X183925480Y-123604520D01*
X116126140Y-103602980D02*
G75*
G03*
X115625760Y-104103360I0J-500380D01*
G01*
X180125480Y-104104520D02*
G75*
G03*
X179625480Y-103604520I-500000J0D01*
G01*
X179626140Y-118604160D02*
G75*
G03*
X180126520Y-118103840I40J500340D01*
G01*
X115625760Y-118103840D02*
G75*
G03*
X116126140Y-118604220I500380J0D01*
G01*
%TO.C,R4*%
X163257544Y-89097020D02*
X161803416Y-89097020D01*
X163257544Y-90917020D02*
X161803416Y-90917020D01*
%TO.C,A1*%
X188040480Y-83129520D02*
X188040480Y-65349520D01*
X137020480Y-83129520D02*
X137020480Y-65349520D01*
X180580480Y-62379520D02*
X182580480Y-62379520D01*
X185390480Y-62699520D02*
X139670480Y-62699520D01*
X185390480Y-85779520D02*
X139670480Y-85779520D01*
X185390480Y-85779520D02*
G75*
G03*
X188040480Y-83129520I0J2650000D01*
G01*
X137020480Y-83129520D02*
G75*
G03*
X139670480Y-85779520I2650000J0D01*
G01*
X139670480Y-62699520D02*
G75*
G03*
X137020480Y-65349520I0J-2650000D01*
G01*
X188040480Y-65349520D02*
G75*
G03*
X185390480Y-62699520I-2650000J0D01*
G01*
%TO.C,R2*%
X175773416Y-89097020D02*
X177227544Y-89097020D01*
X175773416Y-90917020D02*
X177227544Y-90917020D01*
%TO.C,J1-ToPump1*%
X133550480Y-82792020D02*
X130550480Y-82792020D01*
X130550480Y-90892020D02*
X133550480Y-90892020D01*
X133550480Y-82792020D02*
X133550480Y-90892020D01*
X130550480Y-90892020D02*
X130550480Y-82792020D01*
%TO.C,Q1*%
X182560480Y-89372020D02*
X182560480Y-88722020D01*
X182560480Y-89372020D02*
X182560480Y-90022020D01*
X185680480Y-89372020D02*
X185680480Y-90022020D01*
X185680480Y-89372020D02*
X185680480Y-87697020D01*
%TO.C,R1*%
X154545480Y-88407020D02*
X157445480Y-88407020D01*
X153445480Y-89807020D02*
X153445480Y-90207020D01*
X157445480Y-88407020D02*
X157445480Y-89007020D01*
X152945480Y-88207020D02*
X152945480Y-88907020D01*
X153645480Y-88207020D02*
X152945480Y-88207020D01*
X154545480Y-91607020D02*
X157445480Y-91607020D01*
X157445480Y-91607020D02*
X157445480Y-91007020D01*
%TD*%
%LPC*%
D12*
%TO.C,D1*%
X130810000Y-78110000D03*
D13*
X130810000Y-75570000D03*
%TD*%
D14*
%TO.C,J2-ToMoistSense1*%
X123795480Y-84292020D03*
D15*
X123795480Y-89372020D03*
%TD*%
D14*
%TO.C,Batt1*%
X116175480Y-84292020D03*
D15*
X116175480Y-89372020D03*
%TD*%
D16*
%TO.C,R3*%
X168052980Y-90007020D03*
X170977980Y-90007020D03*
%TD*%
D17*
%TO.C,DS1*%
X185425480Y-95604520D03*
X110426380Y-95604520D03*
X110426380Y-126605220D03*
X185424960Y-126605220D03*
D18*
X115925480Y-95604520D03*
D19*
X118465480Y-95604520D03*
X121005480Y-95604520D03*
X123545480Y-95604520D03*
X126085480Y-95604520D03*
X128625480Y-95604520D03*
X131165480Y-95604520D03*
X133705480Y-95604520D03*
X136245480Y-95604520D03*
X138785480Y-95604520D03*
X141325480Y-95604520D03*
X143865480Y-95604520D03*
X146405480Y-95604520D03*
X148945480Y-95604520D03*
X151485480Y-95604520D03*
X154025480Y-95604520D03*
%TD*%
D20*
%TO.C,R4*%
X163992980Y-90007020D03*
X161067980Y-90007020D03*
%TD*%
D21*
%TO.C,A1*%
X181580480Y-64079520D03*
D22*
X179040480Y-64079520D03*
X176500480Y-64079520D03*
X173960480Y-64079520D03*
X171420480Y-64079520D03*
X168880480Y-64079520D03*
X166340480Y-64079520D03*
X163800480Y-64079520D03*
X161260480Y-64079520D03*
X158720480Y-64079520D03*
X156180480Y-64079520D03*
X153640480Y-64079520D03*
X151100480Y-64079520D03*
X148560480Y-64079520D03*
X146020480Y-64079520D03*
X143480480Y-64079520D03*
X143480480Y-84399520D03*
X146020480Y-84399520D03*
X148560480Y-84399520D03*
X151100480Y-84399520D03*
X153640480Y-84399520D03*
X156180480Y-84399520D03*
X158720480Y-84399520D03*
X161260480Y-84399520D03*
X163800480Y-84399520D03*
X166340480Y-84399520D03*
X168880480Y-84399520D03*
X171420480Y-84399520D03*
%TD*%
D16*
%TO.C,R2*%
X175037980Y-90007020D03*
X177962980Y-90007020D03*
%TD*%
D14*
%TO.C,J1-ToPump1*%
X132050480Y-84292020D03*
D15*
X132050480Y-89372020D03*
%TD*%
D23*
%TO.C,Q1*%
X185070480Y-88434520D03*
X183170480Y-88434520D03*
X184120480Y-90309520D03*
%TD*%
D24*
%TO.C,R1*%
X153745480Y-89007020D03*
D25*
X156995480Y-90007020D03*
D24*
X153745480Y-91007020D03*
%TD*%
M02*
